<svg id="Layer_1" enable-background="new 0 0 512 512" height="512" viewBox="0 0 512 512" width="512" xmlns="http://www.w3.org/2000/svg"><g><path d="m256 336.281v134.719h-168.952c-.712 0-1.404-.19-1.995-.541-.581-.33-1.083-.811-1.444-1.412l-73.252-126.757c-1.544-2.674.381-6.01 3.469-6.01h242.174z" fill="#2196f3"/><path d="m330.366 47.01-245.313 423.449c-.581-.33-1.083-.811-1.444-1.412l-73.252-126.757-2.316-4.007c-.722-1.242-.722-2.775 0-4.007l168.942-291.283c.361-.621.872-1.122 1.474-1.472.592-.33 1.283-.521 1.995-.521h146.445c3.088 0 5.012 3.335 3.469 6.01z" fill="#4caf50"/><path d="m326.897 41h-30c3.088 0 5.013 3.335 3.469 6.01l-230.608 398.067 13.852 23.97c.361.601.862 1.082 1.444 1.412l245.312-423.449c1.543-2.675-.381-6.01-3.469-6.01z" fill="#43a047"/><path d="m504.5 336.281c0 .691-.181 1.382-.541 2.003l-73.273 126.786c-1.564 2.604-5.363 2.584-6.897-.07l-245.333-423.479c.592-.33 1.283-.521 1.995-.521h151.097c1.434 0 2.757.761 3.469 1.993l168.942 291.284c.36.621.541 1.303.541 2.004z" fill="#ffc107"/><path d="m503.959 334.277-168.942-291.284c-.712-1.232-2.035-1.993-3.469-1.993h-30c1.434 0 2.757.761 3.469 1.993l168.942 291.284c.361.621.541 1.302.541 2.003 0 .691-.18 1.382-.541 2.003l-61.715 106.787 11.545 19.93c1.534 2.654 5.333 2.674 6.897.07l73.273-126.786c.361-.621.541-1.312.541-2.003 0-.701-.18-1.383-.541-2.004z" fill="#ffb300"/><path d="m504.5 336.281c0 .691-.181 1.382-.541 2.003l-73.273 126.786-2.266 3.926c-.722 1.242-2.045 2.003-3.479 2.003h-168.941v-134.718z" fill="#2196f3"/><path d="m474.5 336.281c0 .691-.18 1.382-.541 2.003l-73.273 126.786-2.266 3.926c-.722 1.242-2.045 2.003-3.479 2.003h30c1.434 0 2.757-.761 3.479-2.003l2.266-3.926 73.273-126.786c.361-.621.541-1.312.541-2.003z" fill="#1e88e5"/><path d="m512 335.629c0-1.975-.726-3.749-1.521-5.114l-117.505-202.586c-2.078-3.583-6.668-4.803-10.251-2.725s-4.804 6.667-2.725 10.25l112.134 193.326h-138.568l-162.385-280.28h138.383l34.379 59.272c2.078 3.583 6.668 4.804 10.251 2.725 3.583-2.078 4.804-6.667 2.725-10.25l-35.385-61.006c-2.047-3.541-5.864-5.741-9.963-5.741h-151.106c-6.298 0-9.138 4.322-9.957 5.73l-168.936 291.254c-2.088 3.561-2.092 7.994-.023 11.553l37.28 64.504c1.39 2.404 3.91 3.749 6.501 3.749 1.274 0 2.565-.325 3.746-1.008 3.587-2.073 4.814-6.66 2.741-10.246l-36.267-62.752 162.606-280.342 69.195 119.433-162.597 280.651-16.291-28.187c-2.073-3.587-6.662-4.812-10.247-2.741-3.587 2.073-4.814 6.66-2.741 10.247 0 0 21.689 37.527 21.71 37.563 1.015 1.691 4.244 5.593 9.869 5.593h265.048c4.142 0 7.5-3.358 7.5-7.5s-3.358-7.5-7.5-7.5h-254.341l69.36-119.719h325.032l-69.191 119.718h-39.167c-4.142 0-7.501 3.358-7.501 7.5s3.358 7.5 7.501 7.5h41.175c4.09 0 7.907-2.197 9.976-5.755l75.532-130.693c1.019-1.753 1.524-4.448 1.524-6.423zm-255.982-145.292 80.209 138.444h-160.418z"/></g></svg>